<svg width="165" height="25" viewBox="0 0 165 25" fill="none" xmlns="http://www.w3.org/2000/svg">
<path d="M12.175 19H0.925V1.275H12.15V5H4.875V8.375H11.475V11.85H4.875V15.25H12.175V19ZM33.8525 5.625L30.3025 6.625C30.2192 6.075 29.9442 5.56667 29.4775 5.1C29.0109 4.63333 28.3025 4.4 27.3525 4.4C26.6359 4.4 26.0525 4.59167 25.6025 4.975C25.1525 5.34167 24.9275 5.78333 24.9275 6.3C24.9275 7.21667 25.5109 7.78333 26.6775 8L29.0525 8.45C30.6859 8.75 31.9442 9.39167 32.8275 10.375C33.7275 11.3417 34.1775 12.475 34.1775 13.775C34.1775 15.2583 33.5859 16.5667 32.4025 17.7C31.2192 18.8167 29.6275 19.375 27.6275 19.375C25.3942 19.375 23.6609 18.8 22.4275 17.65C21.2109 16.4833 20.5275 15.1667 20.3775 13.7L24.0025 12.825C24.0859 13.7083 24.4275 14.4417 25.0275 15.025C25.6442 15.5917 26.5275 15.875 27.6775 15.875C28.4442 15.875 29.0525 15.7083 29.5025 15.375C29.9525 15.025 30.1775 14.575 30.1775 14.025C30.1775 13.575 30.0109 13.2 29.6775 12.9C29.3442 12.5833 28.8775 12.3667 28.2775 12.25L25.8525 11.8C24.3525 11.5167 23.1692 10.9083 22.3025 9.975C21.4525 9.04167 21.0275 7.91667 21.0275 6.6C21.0275 4.96667 21.6525 3.60833 22.9025 2.525C24.1525 1.44167 25.6442 0.899999 27.3775 0.899999C28.4275 0.899999 29.3609 1.05 30.1775 1.35C31.0109 1.63333 31.6692 2.01667 32.1525 2.5C32.6359 2.98333 33.0109 3.48333 33.2775 4C33.5609 4.51667 33.7525 5.05833 33.8525 5.625ZM49.9893 13.75L54.2143 1.275H58.4143L51.9393 19H47.8643L41.3643 1.275H45.7143L49.9893 13.75Z" fill="#0F53FA"/>
<path d="M99.4703 12.95C99.4703 14.2167 99.7786 15.25 100.395 16.05C101.029 16.85 101.895 17.25 102.995 17.25C104.045 17.25 104.887 16.8417 105.52 16.025C106.154 15.2083 106.47 14.1667 106.47 12.9C106.47 11.65 106.162 10.6417 105.545 9.875C104.929 9.10833 104.087 8.725 103.02 8.725C101.954 8.725 101.095 9.11667 100.445 9.9C99.7953 10.6833 99.4703 11.7 99.4703 12.95ZM106.495 17.375V17.175C106.179 17.7917 105.695 18.3083 105.045 18.725C104.412 19.125 103.654 19.325 102.77 19.325C101.054 19.325 99.6703 18.725 98.6203 17.525C97.587 16.3083 97.0703 14.7833 97.0703 12.95C97.0703 11.2 97.6036 9.71667 98.6703 8.5C99.737 7.26667 101.104 6.65 102.77 6.65C103.754 6.65 104.554 6.85 105.17 7.25C105.787 7.63333 106.212 8.10833 106.445 8.675V0.899999H108.77V16.775C108.77 17.5917 108.812 18.3333 108.895 19H106.62C106.537 18.5333 106.495 17.9917 106.495 17.375ZM115.093 19H112.768V6.975H115.093V19ZM112.718 3.625C112.401 3.29167 112.243 2.89167 112.243 2.425C112.243 1.95833 112.401 1.55833 112.718 1.225C113.051 0.891666 113.451 0.725 113.918 0.725C114.384 0.725 114.784 0.891666 115.118 1.225C115.451 1.54167 115.618 1.94167 115.618 2.425C115.618 2.89167 115.451 3.29167 115.118 3.625C114.784 3.94167 114.384 4.1 113.918 4.1C113.451 4.1 113.051 3.94167 112.718 3.625ZM118.216 19.65L120.491 19.125C120.574 19.975 120.916 20.675 121.516 21.225C122.116 21.7917 122.866 22.075 123.766 22.075C126.216 22.075 127.441 20.775 127.441 18.175V16.45C127.141 17.0333 126.666 17.5083 126.016 17.875C125.382 18.2417 124.632 18.425 123.766 18.425C122.166 18.425 120.841 17.8833 119.791 16.8C118.757 15.7 118.241 14.3 118.241 12.6C118.241 10.95 118.757 9.56667 119.791 8.45C120.824 7.31667 122.149 6.75 123.766 6.75C125.599 6.75 126.832 7.38333 127.466 8.65V6.975H129.791V18.1C129.791 18.9 129.682 19.6417 129.466 20.325C129.266 21.025 128.941 21.6667 128.491 22.25C128.041 22.8333 127.407 23.2917 126.591 23.625C125.791 23.9583 124.849 24.125 123.766 24.125C122.282 24.125 121.024 23.7 119.991 22.85C118.957 22.0167 118.366 20.95 118.216 19.65ZM124.116 16.45C125.132 16.45 125.957 16.1 126.591 15.4C127.224 14.6833 127.541 13.75 127.541 12.6C127.541 11.45 127.224 10.525 126.591 9.825C125.957 9.10833 125.132 8.75 124.116 8.75C123.082 8.75 122.241 9.1 121.591 9.8C120.957 10.5 120.641 11.4333 120.641 12.6C120.641 13.7833 120.949 14.725 121.566 15.425C122.199 16.1083 123.049 16.45 124.116 16.45ZM135.869 19H133.544V6.975H135.869V19ZM133.494 3.625C133.177 3.29167 133.019 2.89167 133.019 2.425C133.019 1.95833 133.177 1.55833 133.494 1.225C133.827 0.891666 134.227 0.725 134.694 0.725C135.161 0.725 135.561 0.891666 135.894 1.225C136.227 1.54167 136.394 1.94167 136.394 2.425C136.394 2.89167 136.227 3.29167 135.894 3.625C135.561 3.94167 135.161 4.1 134.694 4.1C134.227 4.1 133.827 3.94167 133.494 3.625ZM143.017 3.175V6.975H145.617V9.1H143.017V15.35C143.017 15.9167 143.142 16.3333 143.392 16.6C143.659 16.8667 144.092 17 144.692 17C145.042 17 145.351 16.9667 145.617 16.9V18.9C145.217 19.05 144.684 19.125 144.017 19.125C142.984 19.125 142.167 18.825 141.567 18.225C140.967 17.625 140.667 16.7833 140.667 15.7V9.1H138.367V6.975H139.017C139.634 6.975 140.092 6.80833 140.392 6.475C140.709 6.125 140.867 5.675 140.867 5.125V3.175H143.017ZM148.004 15.775C148.004 14.7417 148.337 13.9167 149.004 13.3C149.671 12.6667 150.554 12.275 151.654 12.125L154.904 11.65C155.521 11.5667 155.829 11.2667 155.829 10.75C155.829 10.1167 155.612 9.6 155.179 9.2C154.746 8.8 154.096 8.6 153.229 8.6C152.429 8.6 151.796 8.825 151.329 9.275C150.862 9.70833 150.587 10.2917 150.504 11.025L148.254 10.5C148.371 9.35 148.896 8.41667 149.829 7.7C150.762 6.96667 151.879 6.6 153.179 6.6C154.879 6.6 156.137 7.01667 156.954 7.85C157.771 8.66667 158.179 9.71667 158.179 11V17.025C158.179 17.7417 158.229 18.4 158.329 19H156.029C155.946 18.5 155.904 17.9583 155.904 17.375C155.571 17.9083 155.079 18.375 154.429 18.775C153.796 19.175 152.996 19.375 152.029 19.375C150.846 19.375 149.879 19.025 149.129 18.325C148.379 17.6083 148.004 16.7583 148.004 15.775ZM152.354 17.4C153.404 17.4 154.246 17.1167 154.879 16.55C155.512 15.9833 155.829 15.0833 155.829 13.85V13.3L152.154 13.85C151.621 13.9333 151.196 14.125 150.879 14.425C150.562 14.725 150.404 15.1333 150.404 15.65C150.404 16.1167 150.579 16.525 150.929 16.875C151.296 17.225 151.771 17.4 152.354 17.4ZM164.19 19H161.84V0.899999H164.19V19Z" fill="#1D293F"/>
</svg>
